<svg xmlns="http://www.w3.org/2000/svg" viewBox="0 0 512 512">
  <defs>
    <linearGradient id="bg" x1="0%" y1="0%" x2="100%" y2="100%">
      <stop offset="0%" style="stop-color:#6c63ff"/>
      <stop offset="100%" style="stop-color:#ff6b6b"/>
    </linearGradient>
  </defs>
  <rect width="512" height="512" rx="100" fill="url(#bg)"/>
  <rect x="80" y="80" width="352" height="352" rx="24" fill="rgba(255,255,255,0.12)"/>
  <!-- Display area -->
  <rect x="110" y="110" width="292" height="80" rx="12" fill="rgba(255,255,255,0.2)"/>
  <text x="390" y="165" font-family="Arial" font-size="42" fill="white" text-anchor="end" font-weight="300">42</text>
  <!-- Buttons grid -->
  <rect x="110" y="210" width="62" height="50" rx="10" fill="rgba(255,255,255,0.15)"/>
  <rect x="185" y="210" width="62" height="50" rx="10" fill="rgba(255,255,255,0.15)"/>
  <rect x="260" y="210" width="62" height="50" rx="10" fill="rgba(255,255,255,0.15)"/>
  <rect x="335" y="210" width="67" height="50" rx="10" fill="rgba(255,100,100,0.7)"/>
  <rect x="110" y="275" width="62" height="50" rx="10" fill="rgba(255,255,255,0.15)"/>
  <rect x="185" y="275" width="62" height="50" rx="10" fill="rgba(255,255,255,0.15)"/>
  <rect x="260" y="275" width="62" height="50" rx="10" fill="rgba(255,255,255,0.15)"/>
  <rect x="335" y="275" width="67" height="50" rx="10" fill="rgba(108,99,255,0.7)"/>
  <rect x="110" y="340" width="137" height="50" rx="10" fill="rgba(255,255,255,0.15)"/>
  <rect x="260" y="340" width="62" height="50" rx="10" fill="rgba(255,255,255,0.15)"/>
  <rect x="335" y="340" width="67" height="50" rx="10" fill="rgba(78,205,196,0.8)"/>
  <!-- Labels on buttons -->
  <text x="141" y="243" font-family="Arial" font-size="22" fill="white" text-anchor="middle">7</text>
  <text x="216" y="243" font-family="Arial" font-size="22" fill="white" text-anchor="middle">8</text>
  <text x="291" y="243" font-family="Arial" font-size="22" fill="white" text-anchor="middle">9</text>
  <text x="368" y="243" font-family="Arial" font-size="22" fill="white" text-anchor="middle">÷</text>
  <text x="141" y="308" font-family="Arial" font-size="22" fill="white" text-anchor="middle">4</text>
  <text x="216" y="308" font-family="Arial" font-size="22" fill="white" text-anchor="middle">5</text>
  <text x="291" y="308" font-family="Arial" font-size="22" fill="white" text-anchor="middle">6</text>
  <text x="368" y="308" font-family="Arial" font-size="22" fill="white" text-anchor="middle">×</text>
  <text x="178" y="373" font-family="Arial" font-size="22" fill="white" text-anchor="middle">0</text>
  <text x="291" y="373" font-family="Arial" font-size="22" fill="white" text-anchor="middle">.</text>
  <text x="368" y="373" font-family="Arial" font-size="22" fill="white" text-anchor="middle">=</text>
</svg>
